<mxfile host="app.diagrams.net" modified="2023-06-22T04:08:39.732Z" agent="Mozilla/5.0 (Windows NT 10.0; Win64; x64) AppleWebKit/537.36 (KHTML, like Gecko) Chrome/114.0.0.0 Safari/537.36" version="21.3.5" etag="CCqF-77gQK7ZEB0Nb7mA" type="github">
  <diagram name="페이지-1" id="j8K2sogol5mW4K7BbuOA">
    <mxGraphModel>
      <root>
        <mxCell id="0" />
        <mxCell id="1" parent="0" />
      </root>
    </mxGraphModel>
  </diagram>
</mxfile>
